<svg width="0" height="0" class="hidden">
  <symbol
    fill="none"
    xmlns="http://www.w3.org/2000/svg"
    viewBox="0 0 50 53"
    id="mdi_location_on"
  >
    <path
      d="M25.1226 4.76294C16.9924 4.76294 10.4167 11.7524 10.4167 20.3942C10.4167 32.1177 25.1226 49.4238 25.1226 49.4238C25.1226 49.4238 39.8285 32.1177 39.8285 20.3942C39.8285 11.7524 33.2529 4.76294 25.1226 4.76294ZM25.1226 25.9769C22.2235 25.9769 19.8705 23.4758 19.8705 20.3942C19.8705 17.3126 22.2235 14.8116 25.1226 14.8116C28.0218 14.8116 30.3747 17.3126 30.3747 20.3942C30.3747 23.4758 28.0218 25.9769 25.1226 25.9769Z"
      fill="#ffffff"
    />
  </symbol>
  <symbol
    fill="none"
    xmlns="http://www.w3.org/2000/svg"
    viewBox="0 0 50 52"
    id="mdi_mail"
  >
    <g clip-path="url(#clip0_288_75)">
      <path
        d="M41.6667 8.83594H8.33341C6.04175 8.83594 4.18758 10.7623 4.18758 13.1168L4.16675 38.8021C4.16675 41.1565 6.04175 43.0829 8.33341 43.0829H41.6667C43.9584 43.0829 45.8334 41.1565 45.8334 38.8021V13.1168C45.8334 10.7623 43.9584 8.83594 41.6667 8.83594ZM41.6667 17.3977L25.0001 28.0999L8.33341 17.3977V13.1168L25.0001 23.819L41.6667 13.1168V17.3977Z"
        fill="#ffffff"
      />
    </g>
    <defs>
      <clipPath id="clip0_288_75">
        <rect
          width="50"
          height="51.3705"
          fill="#ffffff"
          transform="translate(0 0.27417)"
        />
      </clipPath>
    </defs>
  </symbol>
  <symbol
    fill="none"
    xmlns="http://www.w3.org/2000/svg"
    viewBox="0 0 50 53"
    id="mdi_call"
  >
    <path
      d="M41.6875 33.811C39.125 33.811 36.6458 33.3768 34.3333 32.5952C33.6042 32.3347 32.7917 32.5301 32.2292 33.1163L28.9583 37.3932C23.0625 34.4623 17.5417 28.9262 14.6042 22.5651L18.6667 18.9613C19.2292 18.3534 19.3958 17.5067 19.1667 16.7468C18.3958 14.337 18 11.7535 18 9.08314C18 7.91079 17.0625 6.93384 15.9375 6.93384H8.72917C7.60417 6.93384 6.25 7.45488 6.25 9.08314C6.25 29.2519 22.3542 46.0121 41.6875 46.0121C43.1667 46.0121 43.75 44.6444 43.75 43.4503V35.9603C43.75 34.788 42.8125 33.811 41.6875 33.811Z"
      fill="#ffffff"
    />
  </symbol>
</svg>
